<svg xmlns="http://www.w3.org/2000/svg" viewBox="0 0 626.77 372.17"><defs><style>.a{fill:#fff;}</style></defs><path class="a" d="M4.28,306.15,124.93,215.9c36.57-27.55,47-45.6,47-65.55,0-22.33-19.47-36.58-43.22-36.58-30.4,0-53.2,14.72-77.9,40.85L0,104.27c34.68-41.8,77-64.13,130.63-64.13,73.15,0,124.45,44.65,124.45,106.88,0,43.23-18.05,76.95-75.05,115.9l-51.3,36.58H258.4v72.67H4.28Z"/><path class="a" d="M352.8,66.62,315.1,90,293,51.35,363.85,3.9h44.2V227.17H352.8Z"/><path class="a" d="M452.9,182l82.55-61.75c25-18.85,32.17-31.2,32.17-44.85,0-15.28-13.32-25-29.57-25-20.8,0-36.4,10.08-53.3,27.95L450,43.87C473.7,15.27,502.62,0,539.35,0c50,0,85.15,30.55,85.15,73.12,0,29.58-12.35,52.65-51.35,79.3l-35.1,25h88.72v49.72H452.9Z"/></svg>